<svg width="86" height="60" viewBox="0 0 86 60" fill="none" xmlns="http://www.w3.org/2000/svg">
<g clip-path="url(#clip0_11063_7841)">
<path d="M85.2275 59.2887H64.1866L39.9972 9.55832C38.4772 6.47309 33.7653 6.30049 32.1367 9.64462L8.07761 59.2671H0L26.2523 5.43749C29.7048 -1.96274 42.364 -1.66069 46.0771 5.43749L68.79 52.1905H73.6539L50.5719 4.85497C49.5731 3.04267 49.052 1.66187 47.38 0.194768C47.38 0.194768 55.7399 -0.732959 58.6061 4.70394L85.2275 59.2887Z" fill="#6C44FC"/>
<path d="M40.0406 19.3749L20.9757 59.2671H12.8764L35.1767 12.9887C36.1538 11.0038 35.9367 10.9823 36.8921 12.9456L40.0406 19.3749Z" fill="#6C44FC"/>
</g>
<defs>
<clipPath id="clip0_11063_7841">
<rect width="85.2275" height="59.2887" fill="white"/>
</clipPath>
</defs>
</svg>
