<svg width="128" height="128" viewBox="0 0 128 128" fill="none" xmlns="http://www.w3.org/2000/svg">
<g clip-path="url(#clip0_11063_7845)">
<rect x="0.143311" y="0.577148" width="127.2" height="127.2" rx="63.6" fill="black"/>
<path d="M106.243 89.9059H85.2091L61.0275 40.3762C59.508 37.3034 54.7976 37.1315 53.1696 40.4622L29.1182 89.8845H21.0432L47.287 36.272C50.7384 28.9016 63.3936 29.2025 67.1055 36.272L89.811 82.8364H94.6734L71.5988 35.6918C70.6003 33.8868 70.0793 32.5116 68.4079 31.0504C68.4079 31.0504 76.7651 30.1264 79.6304 35.5414L106.243 89.9059Z" fill="#6C44FC"/>
<path d="M61.0709 50.1532L42.0122 89.8844H33.9155L56.2086 43.7928C57.1854 41.8159 56.9683 41.7944 57.9234 43.7498L61.0709 50.1532Z" fill="#6C44FC"/>
</g>
<defs>
<clipPath id="clip0_11063_7845">
<rect width="127.487" height="127.2" fill="white" transform="translate(0 0.577148)"/>
</clipPath>
</defs>
</svg>
