<svg width="128" height="128" viewBox="0 0 128 128" fill="none" xmlns="http://www.w3.org/2000/svg">
<g clip-path="url(#clip0_11063_7850)">
<rect x="0.143311" y="0.777344" width="127.2" height="127.2" rx="63.6" fill="#6C44FC"/>
<path d="M106.243 90.1061H85.2091L61.0275 40.5764C59.508 37.5036 54.7976 37.3317 53.1696 40.6623L29.1182 90.0846H21.0432L47.287 36.4722C50.7384 29.1018 63.3936 29.4027 67.1055 36.4722L89.811 83.0366H94.6734L71.5988 35.892C70.6003 34.087 70.0793 32.7118 68.4079 31.2506C68.4079 31.2506 76.7651 30.3266 79.6304 35.7416L106.243 90.1061Z" fill="#F1F1F1"/>
<path d="M61.0709 50.3534L42.0122 90.0846H33.9155L56.2086 43.993C57.1854 42.0161 56.9683 41.9946 57.9234 43.95L61.0709 50.3534Z" fill="#F1F1F1"/>
</g>
<defs>
<clipPath id="clip0_11063_7850">
<rect width="127.487" height="127.2" fill="white" transform="translate(0 0.777344)"/>
</clipPath>
</defs>
</svg>
